<svg width="80" height="70" viewBox="0 0 80 70" fill="none" xmlns="http://www.w3.org/2000/svg">
<path d="M80 15.9625H76.2V23.5625H80V15.9625Z" fill="#FF5805"/>
<path d="M68.575 31.1875H72.375V46.4375H45.725V50.25H49.525V54.05H45.725V57.875H72.375V65.5H76.2V23.5625H68.575V31.1875ZM57.15 54.0375H53.325V50.25H57.15V54.0375ZM72.375 54.0375H64.75V50.25H72.375V54.0375Z" fill="#FF5805"/>
<path d="M72.375 19.7626V15.9626H76.2V12.1376H68.575V15.9626H64.75V23.5626H68.575V19.7626H72.375Z" fill="#FF5805"/>
<path d="M41.9 65.4875V61.6625H38.1V65.4875H7.625V69.2875H72.375V65.4875H41.9Z" fill="#FF5805"/>
<path d="M53.325 34.9875V38.8125H57.15V42.6125H60.95V38.8125H64.75V34.9875H68.575V31.1875H64.75V27.3875H60.95V23.5625H57.15V27.3875H53.325V31.1875H49.525V34.9875H53.325Z" fill="#FF5805"/>
<path d="M49.525 27.3876H45.725V31.1876H49.525V27.3876Z" fill="#FF5805"/>
<path d="M49.525 4.51257H45.725V15.9626H49.525V4.51257Z" fill="#FF5805"/>
<path d="M45.725 57.8625H41.9V61.6625H45.725V57.8625Z" fill="#FF5805"/>
<path d="M45.725 42.6125H41.9V46.4376H45.725V42.6125Z" fill="#FF5805"/>
<path d="M45.725 23.5625H41.9V27.3875H45.725V23.5625Z" fill="#FF5805"/>
<path d="M41.9 50.2375H38.1V54.0375H41.9V50.2375Z" fill="#FF5805"/>
<path d="M41.9 38.8125H38.1V42.6125H41.9V38.8125Z" fill="#FF5805"/>
<path d="M41.9 19.7625H45.725V15.9625H34.275V19.7625H38.1V23.5625H41.9V19.7625Z" fill="#FF5805"/>
<path d="M41.9 8.33752H38.1V12.1375H41.9V8.33752Z" fill="#FF5805"/>
<path d="M45.725 0.712524H34.275V4.51252H45.725V0.712524Z" fill="#FF5805"/>
<path d="M38.1 57.8625H34.275V61.6625H38.1V57.8625Z" fill="#FF5805"/>
<path d="M38.1 42.6125H34.275V46.4376H38.1V42.6125Z" fill="#FF5805"/>
<path d="M38.1 23.5625H34.275V27.3875H38.1V23.5625Z" fill="#FF5805"/>
<path d="M34.275 27.3876H30.475V31.1876H34.275V27.3876Z" fill="#FF5805"/>
<path d="M34.275 4.51257H30.475V15.9626H34.275V4.51257Z" fill="#FF5805"/>
<path d="M15.25 34.9875V38.8125H19.05V42.6125H22.85V38.8125H26.675V34.9875H30.475V31.1875H26.675V27.3875H22.85V23.5625H19.05V27.3875H15.25V31.1875H11.425V34.9875H15.25Z" fill="#FF5805"/>
<path d="M7.62499 19.7626H11.425V23.5626H15.25V15.9626H11.425V12.1376H3.79999V15.9626H7.62499V19.7626Z" fill="#FF5805"/>
<path d="M34.275 57.8626V54.0376H30.475V50.2501H34.275V46.4501H7.62499V31.2001H11.425V23.5751H3.79999V65.5001H7.62499V57.8751L34.275 57.8626ZM22.85 50.2501H26.675V54.0501H22.85V50.2501ZM7.62499 50.2501H15.25V54.0501H7.62499V50.2501Z" fill="#FF5805"/>
<path d="M3.8 15.9625H0V23.5625H3.8V15.9625Z" fill="#FF5805"/>
</svg>
