<svg width="33" height="33" viewBox="0 0 33 33" fill="none" xmlns="http://www.w3.org/2000/svg">
<g clip-path="url(#clip0_30_18)">
<path d="M33 12.5709H31.4325V29.8547H33V12.5709Z" fill="#FF5805"/>
<path d="M33 3.14532H31.4325V7.85814H33V3.14532Z" fill="#FF5805"/>
<path d="M31.4325 29.8547H29.8547V31.4325H31.4325V29.8547Z" fill="#FF5805"/>
<path d="M31.4325 7.85815H29.8547V9.42565H31.4325V7.85815Z" fill="#FF5805"/>
<path d="M31.4325 1.5675H29.8547V3.14532H31.4325V1.5675Z" fill="#FF5805"/>
<path d="M29.8547 9.4256H28.2872V11.0034H29.8547V9.4256Z" fill="#FF5805"/>
<path d="M29.8547 6.29065H28.2872V7.85815H29.8547V6.29065Z" fill="#FF5805"/>
<path d="M29.8547 31.4325H3.14532V33H29.8547V31.4325Z" fill="#FF5805"/>
<path d="M28.2872 11.0034H26.7197V12.5709H28.2872V11.0034Z" fill="#FF5805"/>
<path d="M28.2872 4.71283H26.7197V6.29064H28.2872V4.71283Z" fill="#FF5805"/>
<path d="M29.8547 0H25.1419V1.5675H29.8547V0Z" fill="#FF5805"/>
<path d="M26.7197 12.5709H25.1419V14.1384H26.7197V12.5709Z" fill="#FF5805"/>
<path d="M26.7197 6.29065H25.1419V7.85815H26.7197V6.29065Z" fill="#FF5805"/>
<path d="M26.7197 3.14532H25.1419V4.71283H26.7197V3.14532Z" fill="#FF5805"/>
<path d="M25.1419 14.1384H23.5744V15.7162H25.1419V14.1384Z" fill="#FF5805"/>
<path d="M25.1419 7.85815H23.5744V9.42565H25.1419V7.85815Z" fill="#FF5805"/>
<path d="M25.1419 1.5675H23.5744V3.14532H25.1419V1.5675Z" fill="#FF5805"/>
<path d="M23.5744 15.7162H21.9966V17.2837H23.5744V15.7162Z" fill="#FF5805"/>
<path d="M23.5744 9.4256H21.9966V11.0034H23.5744V9.4256Z" fill="#FF5805"/>
<path d="M23.5744 3.14532H21.9966V4.71283H23.5744V3.14532Z" fill="#FF5805"/>
<path d="M21.9966 17.2838H20.4291V18.8616H21.9966V17.2838Z" fill="#FF5805"/>
<path d="M21.9966 11.0034H20.4291V12.5709H21.9966V11.0034Z" fill="#FF5805"/>
<path d="M21.9966 4.71283H20.4291V6.29064H21.9966V4.71283Z" fill="#FF5805"/>
<path d="M20.4291 15.7162H18.8616V17.2837H20.4291V15.7162Z" fill="#FF5805"/>
<path d="M20.4291 12.5709H18.8616V14.1384H20.4291V12.5709Z" fill="#FF5805"/>
<path d="M20.4291 6.29065H18.8616V7.85815H20.4291V6.29065Z" fill="#FF5805"/>
<path d="M17.2837 17.2837H15.7162V15.7162H14.1384V12.5709H12.5709V20.429H20.429V18.8615H17.2837V17.2837Z" fill="#FF5805"/>
<path d="M18.8616 14.1384H17.2838V15.7162H18.8616V14.1384Z" fill="#FF5805"/>
<path d="M18.8616 7.85815H17.2838V9.42565H18.8616V7.85815Z" fill="#FF5805"/>
<path d="M17.2837 12.5709H15.7162V14.1384H17.2837V12.5709Z" fill="#FF5805"/>
<path d="M17.2837 9.4256H15.7162V11.0034H17.2837V9.4256Z" fill="#FF5805"/>
<path d="M15.7162 11.0034H14.1384V12.5709H15.7162V11.0034Z" fill="#FF5805"/>
<path d="M18.8616 1.5675H3.14532V3.14532H18.8616V1.5675Z" fill="#FF5805"/>
<path d="M3.14532 29.8547H1.5675V31.4325H3.14532V29.8547Z" fill="#FF5805"/>
<path d="M3.14532 3.14532H1.5675V4.71283H3.14532V3.14532Z" fill="#FF5805"/>
<path d="M1.5675 4.71283H0V29.8547H1.5675V4.71283Z" fill="#FF5805"/>
</g>
<defs>
<clipPath id="clip0_30_18">
<rect width="33" height="33" fill="white"/>
</clipPath>
</defs>
</svg>
