<svg width="80" height="80" viewBox="0 0 80 80" fill="none" xmlns="http://www.w3.org/2000/svg">
<path d="M62.8628 22.8501V34.2751H47.6128V41.9001H62.8628V53.3251H66.6628V49.5251H70.4878V45.7251H74.2878V41.9001H78.0878V34.2751H74.2878V30.4751H70.4878V26.6751H66.6628V22.8501H62.8628Z" fill="#FF5805"/>
<path d="M55.2375 53.325H51.4375V68.575H55.2375V53.325Z" fill="#FF5805"/>
<path d="M55.2375 3.80005H51.4375V22.85H55.2375V3.80005Z" fill="#FF5805"/>
<path d="M36.1877 76.2001V72.3751H51.4377V68.5751H36.1877V19.05H32.3877V76.2001H36.1877Z" fill="#FF5805"/>
<path d="M32.3874 76.2H20.9624V80H32.3874V76.2Z" fill="#FF5805"/>
<path d="M28.5627 41.8999H24.7627V49.5249H28.5627V41.8999Z" fill="#FF5805"/>
<path d="M32.3877 15.25H24.7627V19.05H32.3877V15.25Z" fill="#FF5805"/>
<path d="M20.9624 72.375H13.3374V76.2H20.9624V72.375Z" fill="#FF5805"/>
<path d="M24.7627 11.425H17.1377V15.25H24.7627V11.425Z" fill="#FF5805"/>
<path d="M13.3374 68.575H5.7124V72.375H13.3374V68.575Z" fill="#FF5805"/>
<path d="M17.1376 7.625H9.5376V11.425H17.1376V7.625Z" fill="#FF5805"/>
<path d="M5.7126 0V3.8H1.9126V68.575H5.7126V7.625H9.5376V3.8H51.4376V0H5.7126Z" fill="#FF5805"/>
</svg>
