<svg width="80" height="80" viewBox="0 0 80 80" fill="none" xmlns="http://www.w3.org/2000/svg">
<path d="M74.2875 36.2V43.825H70.4875V47.625H78.0875V32.375H70.4875V36.2H74.2875Z" fill="#FF5805"/>
<path d="M70.4875 59.05H66.6625V62.85H70.4875V59.05Z" fill="#FF5805"/>
<path d="M70.4875 47.625H66.6625V55.25H70.4875V47.625Z" fill="#FF5805"/>
<path d="M70.4875 24.775H66.6625V32.375H70.4875V24.775Z" fill="#FF5805"/>
<path d="M70.4875 17.15H66.6625V20.95H70.4875V17.15Z" fill="#FF5805"/>
<path d="M66.6625 62.85H62.8625V66.675H66.6625V62.85Z" fill="#FF5805"/>
<path d="M66.6625 55.25H62.8625V59.05H66.6625V55.25Z" fill="#FF5805"/>
<path d="M66.6625 20.9501H62.8625V24.7751H66.6625V20.9501Z" fill="#FF5805"/>
<path d="M66.6625 13.35H62.8625V17.15H66.6625V13.35Z" fill="#FF5805"/>
<path d="M62.8625 66.675H59.0375V70.475H62.8625V66.675Z" fill="#FF5805"/>
<path d="M62.8625 32.375H59.0375V47.625H62.8625V32.375Z" fill="#FF5805"/>
<path d="M62.8625 9.52502H59.0375V13.35H62.8625V9.52502Z" fill="#FF5805"/>
<path d="M59.0375 62.85H55.2375V66.675H59.0375V62.85Z" fill="#FF5805"/>
<path d="M59.0375 47.625H55.2375V55.25H59.0375V47.625Z" fill="#FF5805"/>
<path d="M59.0375 24.775H55.2375V32.375H59.0375V24.775Z" fill="#FF5805"/>
<path d="M59.0375 13.35H55.2375V17.15H59.0375V13.35Z" fill="#FF5805"/>
<path d="M55.2375 66.675H47.6125V70.475H55.2375V66.675Z" fill="#FF5805"/>
<path d="M55.2375 55.25H47.6125V59.05H55.2375V55.25Z" fill="#FF5805"/>
<path d="M55.2375 20.9501H47.6125V24.7751H55.2375V20.9501Z" fill="#FF5805"/>
<path d="M55.2375 9.52502H47.6125V13.35H55.2375V9.52502Z" fill="#FF5805"/>
<path d="M43.8125 74.3H36.1875V70.475H32.3875V78.1H47.6125V70.475H43.8125V74.3Z" fill="#FF5805"/>
<path d="M47.6125 59.05H32.3875V62.85H47.6125V59.05Z" fill="#FF5805"/>
<path d="M36.1875 47.625H43.8125V43.825H47.6125V36.2H43.8125V32.375H36.1875V36.2H32.3875V43.825H36.1875V47.625Z" fill="#FF5805"/>
<path d="M47.6125 17.15H32.3875V20.95H47.6125V17.15Z" fill="#FF5805"/>
<path d="M36.1875 5.72502H43.8125V9.52502H47.6125V1.90002H32.3875V9.52502H36.1875V5.72502Z" fill="#FF5805"/>
<path d="M32.3875 66.675H24.7625V70.475H32.3875V66.675Z" fill="#FF5805"/>
<path d="M32.3875 55.25H24.7625V59.05H32.3875V55.25Z" fill="#FF5805"/>
<path d="M32.3875 20.9501H24.7625V24.7751H32.3875V20.9501Z" fill="#FF5805"/>
<path d="M32.3875 9.52502H24.7625V13.35H32.3875V9.52502Z" fill="#FF5805"/>
<path d="M24.7625 62.85H20.9625V66.675H24.7625V62.85Z" fill="#FF5805"/>
<path d="M24.7625 47.625H20.9625V55.25H24.7625V47.625Z" fill="#FF5805"/>
<path d="M24.7625 24.775H20.9625V32.375H24.7625V24.775Z" fill="#FF5805"/>
<path d="M24.7625 13.35H20.9625V17.15H24.7625V13.35Z" fill="#FF5805"/>
<path d="M20.9625 66.675H17.1375V70.475H20.9625V66.675Z" fill="#FF5805"/>
<path d="M20.9625 32.375H17.1375V47.625H20.9625V32.375Z" fill="#FF5805"/>
<path d="M20.9625 9.52502H17.1375V13.35H20.9625V9.52502Z" fill="#FF5805"/>
<path d="M17.1375 62.85H13.3375V66.675H17.1375V62.85Z" fill="#FF5805"/>
<path d="M17.1375 55.25H13.3375V59.05H17.1375V55.25Z" fill="#FF5805"/>
<path d="M17.1375 20.9501H13.3375V24.7751H17.1375V20.9501Z" fill="#FF5805"/>
<path d="M17.1375 13.35H13.3375V17.15H17.1375V13.35Z" fill="#FF5805"/>
<path d="M13.3375 59.05H9.5375V62.85H13.3375V59.05Z" fill="#FF5805"/>
<path d="M13.3375 47.625H9.5375V55.25H13.3375V47.625Z" fill="#FF5805"/>
<path d="M13.3375 24.775H9.5375V32.375H13.3375V24.775Z" fill="#FF5805"/>
<path d="M13.3375 17.15H9.5375V20.95H13.3375V17.15Z" fill="#FF5805"/>
<path d="M9.5375 43.825H5.7125V36.2H9.5375V32.375H1.9125V47.625H9.5375V43.825Z" fill="#FF5805"/>
</svg>
