<svg width="80" height="80" viewBox="0 0 80 80" fill="none" xmlns="http://www.w3.org/2000/svg">
<path d="M6.66665 33.3334H9.99998V56.6667H6.66665V53.3334H3.33331V36.6667H6.66665V33.3334Z" fill="#FF5805"/>
<path d="M63.3333 23.3333H60V20H43.3333V10H36.6666V20H20V23.3333H16.6666V26.6667H13.3333V60H16.6666V63.3333H20V66.6667H60V63.3333H63.3333V60H66.6666V26.6667H63.3333V23.3333ZM56.6666 43.3333H46.6666V33.3333H56.6666V43.3333ZM43.3333 56.6667H36.6666V53.3333H43.3333V56.6667ZM23.3333 53.3333H33.3333V56.6667H23.3333V53.3333ZM23.3333 33.3333H33.3333V43.3333H23.3333V33.3333ZM46.6666 56.6667V53.3333H56.6666V56.6667H46.6666Z" fill="#FF5805"/>
<path d="M76.6667 36.6667V53.3334H73.3333V56.6667H70V33.3334H73.3333V36.6667H76.6667Z" fill="#FF5805"/>
</svg>
